<?xml version="1.0" standalone="no"?>
<!DOCTYPE svg PUBLIC "-//W3C//DTD SVG 20010904//EN"
 "http://www.w3.org/TR/2001/REC-SVG-20010904/DTD/svg10.dtd">
<svg version="1.0" xmlns="http://www.w3.org/2000/svg"
 width="512.000000pt" height="512.000000pt" viewBox="0 0 512.000000 512.000000"
 preserveAspectRatio="xMidYMid meet">
<metadata>
Created by potrace 1.11, written by Peter Selinger 2001-2013
</metadata>
<g transform="translate(0.000000,512.000000) scale(0.100000,-0.100000)"
fill="#000000" stroke="none">
<path d="M1580 4292 c-51 -27 -123 -128 -159 -222 -38 -99 -63 -252 -59 -369
l3 -86 24 89 c43 162 120 284 204 325 55 27 131 27 199 1 29 -11 54 -20 56
-20 6 0 -192 285 -202 292 -17 12 -28 10 -66 -10z"/>
<path d="M3474 4303 c-11 -9 -204 -288 -204 -297 0 -3 24 6 53 19 101 48 216
23 287 -62 43 -53 95 -163 119 -257 12 -44 24 -82 27 -85 4 -3 4 59 1 139 -7
192 -45 327 -127 444 -49 72 -126 120 -156 99z"/>
<path d="M1740 2384 c0 -3 11 -20 24 -37 20 -26 24 -40 20 -72 -18 -146 193
-199 245 -62 27 71 -18 156 -90 171 -39 8 -199 8 -199 0z"/>
<path d="M3150 2372 c-64 -34 -88 -118 -50 -179 72 -119 259 -51 236 86 -4 27
0 42 19 67 14 18 25 35 25 38 0 3 -44 6 -98 6 -75 0 -105 -4 -132 -18z"/>
<path d="M2300 1452 c-38 -20 -80 -89 -80 -132 0 -42 48 -127 97 -169 72 -64
125 -85 228 -89 124 -5 185 18 270 102 90 90 108 172 54 248 -38 53 -65 58
-311 58 -197 0 -227 -2 -258 -18z"/>
</g>
</svg>
