<?xml version="1.0" standalone="no"?>
<!DOCTYPE svg PUBLIC "-//W3C//DTD SVG 20010904//EN"
 "http://www.w3.org/TR/2001/REC-SVG-20010904/DTD/svg10.dtd">
<svg version="1.0" xmlns="http://www.w3.org/2000/svg"
 width="1024.000000pt" height="1024.000000pt" viewBox="0 0 1024.000000 1024.000000"
 preserveAspectRatio="xMidYMid meet">
<metadata>
Created by potrace 1.11, written by Peter Selinger 2001-2013
</metadata>
<g transform="translate(0.000000,1024.000000) scale(0.100000,-0.100000)"
fill="#000000" stroke="none">
<path d="M0 5120 l0 -5120 5120 0 5120 0 0 5120 0 5120 -5120 0 -5120 0 0
-5120z m5450 3485 c521 -70 966 -236 1395 -520 745 -494 1251 -1269 1404
-2150 35 -196 45 -326 45 -555 0 -229 -10 -359 -45 -555 -227 -1303 -1220
-2340 -2514 -2624 -281 -62 -677 -87 -965 -62 -936 83 -1769 549 -2335 1307
-287 383 -487 836 -579 1313 -78 400 -78 843 0 1245 98 503 324 993 645 1396
107 134 336 369 463 473 519 430 1131 683 1806 747 135 12 543 4 680 -15z
m2149 -6145 c78 -88 147 -160 153 -160 6 0 36 21 66 47 l55 47 25 -29 25 -29
-49 -44 c-27 -24 -68 -60 -92 -79 -42 -36 -43 -36 -61 -17 -108 114 -321 365
-321 377 0 14 35 47 51 47 3 0 70 -72 148 -160z m-4881 99 c23 -17 42 -35 42
-40 0 -5 -23 -60 -51 -122 -57 -126 -70 -157 -65 -157 2 0 50 39 107 86 57 47
111 89 120 94 12 7 28 1 58 -21 22 -17 41 -35 41 -40 0 -15 -301 -400 -317
-406 -8 -3 -24 4 -36 15 l-21 21 30 40 c16 22 64 85 107 141 42 55 75 100 72
100 -3 0 -66 -50 -140 -111 -197 -161 -214 -147 -105 90 39 85 69 155 68 157
-2 1 -46 -54 -98 -123 -120 -157 -120 -157 -148 -137 -12 8 -22 22 -22 30 0
15 299 413 311 414 3 0 24 -14 47 -31z m4589 -381 c101 -101 183 -187 183
-192 0 -13 -32 -35 -51 -36 -8 0 -28 14 -44 30 -36 37 -61 38 -104 3 l-32 -28
20 -48 21 -47 -21 -21 c-11 -11 -28 -19 -36 -17 -11 2 -50 82 -114 233 -54
127 -98 235 -98 242 -1 13 66 63 84 63 5 0 92 -82 192 -182z m-3977 -20 c105
-54 110 -114 24 -282 -81 -158 -114 -202 -163 -217 -95 -28 -205 64 -185 155
8 37 94 211 139 282 32 50 80 83 120 84 12 0 41 -10 65 -22z m3417 -40 c5 -7
45 -89 88 -183 134 -293 126 -272 109 -290 -8 -8 -25 -15 -37 -15 -19 0 -33
24 -92 155 -38 85 -71 151 -73 147 -1 -4 13 -83 32 -175 27 -136 31 -169 20
-178 -7 -6 -20 -9 -28 -7 -8 2 -65 68 -127 148 -62 80 -109 138 -106 130 3 -8
35 -79 71 -158 36 -78 66 -149 66 -158 0 -20 -47 -41 -62 -26 -18 18 -216 456
-211 466 3 4 26 17 50 28 54 24 48 29 158 -115 44 -58 81 -104 83 -102 2 2 -8
61 -22 131 -35 171 -35 171 17 194 50 23 52 23 64 8z m-2938 -179 c101 -38
131 -70 131 -138 0 -64 -35 -130 -81 -155 l-36 -20 -5 -118 c-3 -65 -8 -121
-10 -124 -3 -3 -22 2 -42 10 l-36 15 0 116 c0 115 0 116 -22 113 -19 -2 -28
-19 -54 -92 -17 -50 -35 -91 -41 -93 -17 -6 -63 16 -63 30 0 14 154 459 165
477 8 13 2 14 94 -21z m2345 -141 c84 -278 117 -400 112 -413 -6 -17 -54 -31
-66 -19 -4 5 -38 110 -74 234 -37 124 -69 233 -72 243 -4 12 2 20 18 26 50 20
56 15 82 -71z m-1832 -6 c7 -7 -77 -426 -98 -494 -6 -21 -43 -24 -67 -5 -15
11 -12 31 33 242 27 127 52 241 55 254 5 20 10 22 38 17 17 -4 35 -10 39 -14z
m1462 -24 c3 -13 22 -126 41 -251 40 -251 39 -261 -19 -255 -27 3 -39 16 -107
126 -42 67 -80 127 -86 133 -10 10 -1 -65 26 -215 5 -28 7 -55 4 -62 -6 -16
-61 -24 -72 -10 -8 11 -81 453 -81 492 0 16 8 23 31 28 19 3 38 1 45 -5 8 -6
48 -67 90 -136 42 -68 79 -122 81 -119 3 2 -5 66 -17 142 -24 149 -23 154 32
154 21 0 29 -6 32 -22z m-647 -46 c14 -9 115 -475 111 -507 -2 -15 -11 -20
-32 -20 -32 0 -41 11 -56 73 l-11 43 -52 -3 -52 -3 -12 -47 c-6 -26 -14 -52
-18 -58 -8 -12 -62 -14 -69 -1 -9 14 84 515 97 523 16 10 79 10 94 0z"/>
<path d="M4720 8509 c-988 -108 -1861 -663 -2370 -1509 -280 -466 -429 -975
-447 -1530 -24 -749 215 -1463 688 -2061 106 -134 354 -382 488 -488 742 -588
1669 -811 2603 -626 917 182 1731 801 2160 1642 231 452 334 855 345 1355 6
252 -4 406 -38 608 -213 1261 -1174 2273 -2419 2550 -223 50 -342 62 -640 65
-157 2 -323 -1 -370 -6z m408 -405 c15 -4 22 -14 22 -31 l0 -24 -102 3 c-97 3
-103 4 -106 25 -2 16 3 23 20 26 36 7 141 7 166 1z m-393 -44 c0 -23 -6 -25
-94 -37 -77 -12 -96 -12 -102 -1 -22 34 -18 35 151 61 38 6 45 2 45 -23z m758
9 c72 -11 77 -13 71 -33 -4 -12 -8 -22 -9 -24 -2 -2 -46 2 -99 9 -96 13 -96
13 -96 42 0 26 3 28 28 23 15 -3 62 -10 105 -17z m-1163 -68 c0 -5 3 -16 6
-24 7 -20 -186 -83 -198 -64 -17 27 -4 38 85 66 106 34 107 34 107 22z m1553
-26 c80 -25 87 -29 81 -49 -4 -11 -8 -23 -9 -24 -4 -5 -177 50 -188 59 -13 10
2 51 16 46 7 -2 51 -17 100 -32z m-1933 -147 c0 -4 -40 -27 -89 -52 -65 -33
-92 -41 -100 -33 -23 23 -9 38 77 81 78 40 88 43 100 28 6 -9 12 -19 12 -24z
m2360 -31 c19 -11 36 -22 38 -23 2 -1 -1 -12 -7 -23 -11 -20 -14 -20 -105 26
-88 43 -93 48 -84 69 l10 22 57 -25 c31 -14 72 -34 91 -46z m-2723 -173 c-2
-2 -39 -29 -82 -59 -60 -41 -82 -52 -92 -43 -24 19 -14 32 69 91 80 56 81 57
96 36 8 -11 12 -22 9 -25z m3085 -56 c24 -21 26 -25 13 -41 -13 -18 -18 -16
-98 40 -81 56 -84 59 -69 81 l14 22 57 -40 c31 -22 68 -50 83 -62z m-3421
-174 c11 -13 2 -25 -59 -87 -68 -68 -73 -71 -89 -54 -16 16 -14 21 52 87 38
39 72 70 76 70 4 0 12 -7 20 -16z m3690 -53 c65 -60 72 -70 60 -85 -7 -9 -18
-16 -24 -16 -7 0 -42 30 -79 67 -55 55 -65 69 -57 85 5 10 14 18 18 18 5 0 42
-31 82 -69z m-1789 -154 c66 -32 130 -95 161 -157 19 -40 22 -63 25 -207 l3
-163 411 0 410 0 -4 -97 c-5 -115 -26 -169 -92 -234 -66 -67 -132 -93 -255
-99 l-104 -5 181 -170 181 -170 -62 -59 c-90 -86 -150 -111 -262 -111 -121 0
-174 26 -300 146 -51 49 -95 89 -99 89 -3 0 -6 -78 -6 -173 0 -207 -9 -242
-82 -322 -75 -82 -135 -108 -269 -113 l-109 -5 0 308 0 307 -97 -91 c-119
-111 -177 -142 -277 -149 -118 -7 -207 31 -303 130 l-42 43 180 170 181 170
-89 6 c-215 15 -333 149 -333 382 l0 47 390 0 390 0 0 273 c0 151 3 277 8 281
4 5 53 6 108 4 84 -4 111 -9 156 -31z m-2187 -91 c17 -12 14 -18 -45 -94 -56
-72 -64 -79 -81 -69 -11 7 -17 18 -14 25 7 18 108 151 116 152 3 0 13 -6 24
-14z m4251 -62 c45 -60 55 -80 47 -93 -6 -9 -15 -16 -21 -16 -10 0 -122 142
-122 155 0 8 22 30 31 30 4 0 33 -34 65 -76z m-4486 -274 c13 -8 8 -22 -29
-92 -54 -103 -54 -102 -80 -88 l-22 11 32 57 c74 132 72 129 99 112z m4713
-75 c26 -47 47 -90 47 -95 0 -9 -39 -25 -44 -18 -2 1 -23 41 -49 88 -42 78
-44 87 -29 97 9 7 20 12 23 12 3 1 26 -37 52 -84z m-4885 -300 c8 -7 -64 -195
-73 -195 -5 0 -16 4 -24 9 -12 7 -8 26 19 105 30 87 35 96 54 90 12 -4 23 -8
24 -9z m5060 -97 c31 -86 31 -87 11 -93 -28 -9 -31 -5 -67 96 l-30 87 21 10
c27 11 26 13 65 -100z m-5191 -296 c10 -6 8 -29 -7 -102 -11 -52 -20 -96 -20
-97 0 -8 -40 -2 -44 6 -5 8 8 87 29 179 6 23 21 28 42 14z m5296 -79 c23 -116
22 -123 -7 -123 -22 0 -25 6 -41 96 -14 81 -15 98 -4 105 29 18 36 7 52 -78z
m-3551 -245 c66 -31 127 -90 159 -156 21 -42 24 -64 27 -209 l4 -163 329 0
329 0 0 -83 c0 -106 -19 -163 -76 -226 -58 -65 -96 -87 -183 -109 l-71 -18 77
-74 c43 -41 122 -117 176 -169 l99 -94 -54 -54 c-101 -103 -233 -143 -354
-109 -73 22 -115 48 -203 131 l-69 66 -4 -148 c-3 -138 -5 -152 -31 -205 -33
-68 -90 -121 -166 -156 -46 -22 -75 -27 -158 -30 l-103 -4 0 273 0 273 -52
-50 c-101 -97 -141 -124 -211 -146 -130 -39 -260 -2 -366 105 l-53 55 108 104
c60 56 139 132 177 167 37 36 64 68 60 71 -5 4 -30 13 -57 20 -50 14 -119 60
-162 108 -41 47 -64 124 -64 217 l0 85 310 0 310 0 0 281 0 281 108 -4 c91 -2
116 -7 164 -30z m1905 10 c73 -27 153 -101 184 -171 21 -46 24 -71 27 -209 l4
-158 330 0 330 0 -4 -97 c-5 -116 -30 -174 -101 -240 -56 -52 -72 -60 -157
-82 l-70 -17 82 -79 c46 -44 125 -120 176 -169 l93 -89 -53 -54 c-101 -103
-233 -143 -354 -109 -74 22 -121 52 -205 133 l-67 64 -3 -148 c-4 -138 -6
-152 -32 -205 -33 -68 -90 -121 -166 -156 -46 -22 -75 -27 -158 -30 l-103 -4
-2 270 -3 271 -85 -78 c-111 -100 -168 -126 -275 -126 -71 0 -89 4 -145 33
-36 18 -91 56 -122 85 l-57 53 179 169 c99 92 177 172 174 176 -3 5 -15 9 -27
9 -12 0 -42 10 -66 21 -125 56 -188 155 -198 307 l-6 92 317 0 316 0 0 280 0
280 95 0 c72 0 108 -5 152 -22z m-3703 -125 c-3 -174 -2 -173 -29 -173 -25 0
-25 1 -25 89 0 105 5 123 34 119 17 -2 21 -10 20 -35z m5400 -40 c3 -42 6 -91
6 -110 0 -32 -2 -34 -27 -31 l-28 3 -3 94 c-3 107 0 121 26 121 16 0 20 -11
26 -77z m-5393 -384 c22 -157 22 -156 -5 -161 -29 -6 -32 1 -42 116 -5 62 -4
80 7 87 24 15 34 4 40 -42z m5375 33 c8 -5 8 -32 2 -92 -11 -107 -12 -110 -44
-110 -24 0 -26 3 -21 28 3 15 8 56 12 92 4 36 8 71 10 78 5 13 24 16 41 4z
m-5293 -489 c22 -76 25 -98 15 -105 -14 -8 -38 -11 -38 -4 0 3 -11 46 -25 97
-25 93 -23 108 10 109 6 0 23 -44 38 -97z m5225 78 c11 -7 9 -25 -11 -101 -14
-50 -28 -94 -31 -97 -9 -9 -47 9 -43 20 2 7 14 51 27 100 22 85 31 96 58 78z
m-5088 -457 c22 -48 40 -91 40 -95 0 -5 -9 -13 -20 -19 -19 -10 -24 -4 -60 75
-45 96 -48 112 -22 118 9 3 18 5 20 6 1 0 20 -38 42 -85z m4959 67 c16 -10 11
-27 -35 -129 -31 -67 -35 -72 -54 -62 -11 6 -20 14 -20 18 0 18 76 182 85 182
6 0 16 -4 24 -9z m-4760 -437 c51 -81 52 -86 35 -99 -23 -16 -19 -20 -84 80
-47 73 -50 80 -34 92 10 7 20 13 23 13 3 0 30 -39 60 -86z m4574 64 c16 -12
12 -20 -38 -95 -30 -46 -57 -83 -59 -83 -13 0 -36 13 -36 20 0 13 102 170 109
170 4 0 15 -6 24 -12z m-4324 -389 c52 -57 62 -75 54 -88 -6 -9 -15 -16 -21
-16 -6 0 -40 34 -76 75 -60 68 -65 76 -49 88 9 6 19 12 22 12 3 0 35 -32 70
-71z m4084 53 c15 -16 11 -22 -53 -92 -64 -70 -69 -74 -86 -58 -16 15 -13 21
47 91 35 42 67 76 70 76 3 1 13 -7 22 -17z m-3765 -357 c28 -22 51 -42 51 -45
0 -3 -6 -13 -14 -24 -13 -18 -18 -15 -95 49 -77 64 -80 68 -64 86 16 18 17 18
44 -4 15 -12 50 -40 78 -62z m3478 57 c12 -19 9 -22 -103 -111 -36 -29 -45
-32 -58 -21 -9 7 -14 17 -13 22 5 13 141 127 153 127 6 1 15 -7 21 -17z
m-3171 -273 c47 -28 85 -53 85 -56 0 -2 -5 -13 -10 -23 -10 -18 -14 -17 -73
17 -110 64 -118 71 -104 94 6 10 13 19 15 19 2 0 41 -23 87 -51z m2842 7 c-2
-5 -40 -31 -86 -59 -67 -40 -85 -47 -92 -36 -16 25 -5 39 76 88 71 43 81 47
93 33 7 -9 11 -20 9 -26z m-2469 -192 c83 -33 90 -38 82 -58 -10 -25 -12 -24
-113 16 -84 33 -90 38 -81 62 8 21 9 21 112 -20z m2102 16 c12 -22 -7 -35
-118 -76 -65 -25 -81 -23 -82 12 0 8 159 82 182 83 4 1 12 -8 18 -19z m-1642
-155 c22 -5 31 -38 14 -49 -10 -6 -183 33 -194 43 -4 3 -5 16 -2 27 6 22 3 23
182 -21z m1250 8 c3 -19 -6 -23 -93 -43 -53 -13 -97 -21 -99 -19 -2 2 -6 14
-10 25 -6 20 0 23 76 42 101 25 122 24 126 -5z m-840 -59 c16 -3 22 -11 22
-31 l0 -26 -67 6 c-38 4 -83 7 -101 7 -34 0 -49 18 -39 44 5 12 22 14 84 10
43 -3 88 -7 101 -10z m435 -10 c2 -14 0 -27 -7 -29 -6 -3 -54 -6 -106 -7 -91
-3 -95 -2 -98 19 -4 24 16 30 118 36 30 2 62 4 71 5 11 1 18 -7 22 -24z"/>
<path d="M4970 6900 l0 -240 145 0 145 0 0 143 c0 128 -3 147 -24 193 -41 89
-127 144 -225 144 l-41 0 0 -240z"/>
<path d="M4192 6525 c6 -73 48 -140 112 -180 l49 -30 761 -3 c536 -2 772 0
799 8 47 14 112 71 137 120 10 21 22 60 26 89 l7 51 -948 0 -947 0 4 -55z"/>
<path d="M4461 6059 c-100 -94 -181 -175 -181 -179 0 -12 66 -59 105 -76 19
-7 63 -14 99 -14 95 0 136 27 366 243 110 104 200 191 200 193 0 2 -92 4 -204
4 l-204 0 -181 -171z"/>
<path d="M5072 6134 l-102 -96 0 -309 0 -309 41 0 c98 0 184 55 225 144 23 50
24 57 24 359 l0 307 -43 0 c-41 0 -49 -5 -145 -96z"/>
<path d="M5340 6151 l0 -79 123 -117 c151 -145 194 -169 302 -163 66 3 79 7
129 42 31 21 55 43 53 49 -1 5 -84 85 -182 178 l-180 169 -122 0 -123 0 0 -79z"/>
<path d="M3980 5385 l0 -235 151 0 151 0 -4 148 c-4 124 -8 153 -25 187 -46
87 -123 135 -218 135 l-55 0 0 -235z"/>
<path d="M3360 5023 c0 -87 84 -196 169 -221 27 -9 209 -12 627 -12 571 0 590
1 634 21 25 11 58 32 74 47 38 36 76 118 76 165 l0 37 -790 0 -790 0 0 -37z"/>
<path d="M3511 4538 l-183 -173 33 -27 c59 -49 98 -63 179 -63 55 1 85 6 112
20 32 17 352 309 427 389 l24 26 -204 0 -205 0 -183 -172z"/>
<path d="M4103 4594 l-123 -116 0 -270 0 -271 65 5 c114 10 201 83 224 189 6
28 11 164 11 314 l0 265 -27 0 c-22 0 -55 -26 -150 -116z"/>
<path d="M4360 4611 l0 -99 101 -94 c138 -128 165 -143 259 -143 81 0 120 14
179 63 l33 27 -181 173 -180 172 -106 0 -105 0 0 -99z"/>
<path d="M5910 5385 l0 -235 145 0 145 0 0 145 c0 161 -6 187 -61 250 -45 50
-100 75 -171 75 l-58 0 0 -235z"/>
<path d="M5290 5023 c0 -27 9 -66 19 -88 23 -51 98 -118 149 -133 28 -9 206
-12 628 -12 l589 0 50 24 c82 38 130 106 141 200 l7 56 -792 0 -791 0 0 -47z"/>
<path d="M5438 4538 l-180 -172 37 -33 c70 -60 168 -78 259 -47 48 16 95 58
396 342 l85 81 -208 1 -208 0 -181 -172z"/>
<path d="M6031 4598 l-120 -113 0 -274 -1 -274 66 6 c84 6 147 43 189 111 l30
49 3 304 3 303 -25 0 c-17 0 -59 -32 -145 -112z"/>
<path d="M6290 4611 l0 -100 106 -98 c134 -125 157 -138 254 -138 79 0 121 16
183 67 l29 23 -183 173 -183 172 -103 0 -103 0 0 -99z"/>
<path d="M7140 2229 c0 -19 82 -184 92 -186 7 -2 24 7 37 18 l25 20 -77 77
c-42 42 -77 74 -77 71z"/>
<path d="M3242 2083 c-31 -25 -144 -241 -149 -284 -4 -30 -1 -39 18 -53 52
-36 72 -18 158 145 61 115 74 166 49 187 -27 21 -55 22 -76 5z"/>
<path d="M3757 1838 c-26 -61 -38 -108 -33 -117 12 -19 66 -23 91 -7 30 19 51
87 36 115 -8 15 -57 41 -77 41 -2 0 -10 -15 -17 -32z"/>
<path d="M5082 1552 c-7 -29 -15 -77 -18 -107 l-7 -55 37 0 c43 0 44 4 17 130
l-18 85 -11 -53z"/>
</g>
</svg>
