<svg xmlns="http://www.w3.org/2000/svg" viewBox="0 0 253.31 289.76"><g id="レイヤー_2" data-name="レイヤー 2"><g id="レイヤー_1-2" data-name="レイヤー 1"><path d="M103,93.52h3.27L92.08,107l3.38,3.2a13.54,13.54,0,0,0,18.39,0l6.52-6.16v24.05h4.78c7.17,0,13-5.53,13-12.31V104l6.53,6.18a13.54,13.54,0,0,0,18.39,0l3.38-3.2L152.24,93.53H157c7.17,0,13-5.52,13-12.3V76.69H138.16V67.24c0-6.79-5.83-12.31-13-12.31h-4.78V76.69H90v4.53C90,88,95.86,93.52,103,93.52Zm8.58,14.54a10.22,10.22,0,0,1-13.91,0L96.57,107l14.22-13.46H127l-3.43,3.24-3.17,3ZM135,96.78v19a9.59,9.59,0,0,1-9.83,9.3h-1.61V101l5.73-5.41,2.3-2.07H135ZM162,107l-1.14,1.07a10.21,10.21,0,0,1-13.9,0l-8.77-8.29V93.54h9.58ZM123.54,57.93h1.61A9.59,9.59,0,0,1,135,67.24v9.45H123.54ZM93.2,79.7h73.64v1.52a9.59,9.59,0,0,1-9.84,9.3H103a9.59,9.59,0,0,1-9.83-9.3Zm19.5,72.91c7.17,0,13-5.52,13-12.31v-4.52H99.86v-9.46c0-6.79-5.84-12.31-13-12.31H82.06v21.77H57.71v4.52c0,6.41,5.22,11.69,11.84,12.25L55.27,166.07l3.38,3.2a13.54,13.54,0,0,0,18.39,0l5-4.75v21.22h4.78c7.17,0,13-5.52,13-12.3v-8.93l5,4.76a13.54,13.54,0,0,0,18.39,0l3.39-3.2-14.23-13.46ZM85.23,117h1.61a9.59,9.59,0,0,1,9.83,9.3v9.46H85.23ZM74.8,167.14a10.22,10.22,0,0,1-13.91,0l-1.13-1.07L74,152.61H90.16L88.72,154l-3.49,3.29-3.17,3Zm21.88-9.87v16.16a9.59,9.59,0,0,1-9.83,9.3H85.23v-21.2L91,156.11,93.21,154l1.45-1.37h2Zm1.16-7.65H70.72a9.59,9.59,0,0,1-9.83-9.3v-1.52h61.64v1.52a9.59,9.59,0,0,1-9.83,9.3H97.84Zm24.33,16.45L121,167.14a10.21,10.21,0,0,1-13.9,0l-7.28-6.87v-7.65H108Zm65.38-13.46h.27c7.17,0,13-5.52,13-12.31v-4.52H175v-9.46c0-6.79-5.83-12.31-13-12.31h-4.78v21.77H132.83v4.52c0,6.41,5.22,11.69,11.84,12.25l-14.29,13.52,3.39,3.2a13.54,13.54,0,0,0,18.39,0l5-4.75v21.22H162c7.17,0,13-5.52,13-12.3v-8.93l5,4.76a13.54,13.54,0,0,0,18.39,0l3.38-3.2ZM160.35,117H162a9.59,9.59,0,0,1,9.83,9.3v9.46H160.35Zm-10.44,50.12a10.21,10.21,0,0,1-13.9,0l-1.14-1.07,14.23-13.46h16.18L163.83,154l-3.48,3.29-3.17,3Zm21.89-9.87v16.16a9.59,9.59,0,0,1-9.83,9.3h-1.61v-21.2l5.73-5.42,2.24-2.12,1.45-1.37h2Zm1.16-7.65H145.83a9.59,9.59,0,0,1-9.83-9.3v-1.52h61.65v1.52a9.59,9.59,0,0,1-9.83,9.3H173Zm23.19,17.52a10.22,10.22,0,0,1-13.91,0L175,160.27v-7.65h8.08l14.22,13.46Zm-69.49,86.17A126.66,126.66,0,1,1,253.31,126.66,126.8,126.8,0,0,1,126.66,253.31ZM126.66,4A122.66,122.66,0,1,0,249.31,126.66,122.79,122.79,0,0,0,126.66,4Zm3.88,228.9-.07-2c2.66-.1,5.34-.29,8-.59l.22,2C136,232.6,133.25,232.8,130.54,232.9Zm-8.14,0c-2.7-.11-5.43-.32-8.11-.63l.23-2c2.63.31,5.31.51,8,.62Zm24.31-1.81-.37-2c2.61-.5,5.22-1.11,7.78-1.8l.52,1.93C152,230,149.37,230.57,146.71,231.08ZM106.24,231c-2.65-.51-5.32-1.14-7.93-1.86l.54-1.93c2.56.71,5.17,1.32,7.77,1.83Zm56.17-4.2-.67-1.89c2.49-.89,5-1.89,7.42-3l.82,1.82C167.5,224.88,165,225.9,162.41,226.81Zm-71.86-.13c-2.54-.92-5.08-2-7.53-3.05l.82-1.83c2.41,1.09,4.9,2.1,7.39,3Zm86.73-6.52-.95-1.75c2.33-1.27,4.64-2.64,6.87-4.08l1.09,1.68C182,217.48,179.66,218.88,177.28,220.16ZM75.73,220c-2.37-1.29-4.72-2.7-7-4.17l1.09-1.68c2.22,1.45,4.53,2.83,6.85,4.09ZM191,211.33l-1.22-1.59c2.11-1.61,4.19-3.32,6.18-5.08l1.33,1.5C195.22,208,193.1,209.69,191,211.33Zm-128.86-.2c-2.14-1.64-4.25-3.39-6.27-5.19l1.33-1.49c2,1.77,4.05,3.48,6.15,5.09Zm141-10.61-1.44-1.39c1.84-1.91,3.64-3.91,5.33-5.95l1.54,1.27C206.82,196.54,205,198.58,203.12,200.52ZM50,200.28c-1.88-1.95-3.7-4-5.42-6.08l1.55-1.27c1.69,2,3.47,4.06,5.31,6ZM213.5,188l-1.63-1.15c1.53-2.17,3-4.42,4.36-6.7l1.72,1C216.56,183.49,215.06,185.78,213.5,188Zm-173.88-.27c-1.55-2.21-3-4.51-4.43-6.84l1.72-1c1.36,2.28,2.82,4.54,4.35,6.71ZM221.85,174l-1.79-.89c1.19-2.37,2.29-4.82,3.29-7.27l1.85.75C224.19,169.12,223.06,171.61,221.85,174ZM31.3,173.72c-1.2-2.43-2.32-4.93-3.32-7.44l1.85-.74c1,2.45,2.09,4.91,3.27,7.3ZM228,159l-1.9-.61c.8-2.52,1.52-5.11,2.13-7.7l1.94.46C229.52,153.75,228.79,156.39,228,159Zm-202.74-.35c-.81-2.58-1.53-5.22-2.14-7.86L25,150.3c.59,2.59,1.3,5.18,2.1,7.71ZM231.7,143.12l-2-.3c.4-2.62.71-5.29.92-7.94l2,.16C232.43,137.73,232.12,140.46,231.7,143.12Zm-210.14-.36c-.41-2.67-.72-5.39-.92-8.09l2-.15c.19,2.65.5,5.32.89,7.94ZM233,126.9h-2v-.24c0-2.66-.1-5.35-.3-8l2-.15c.21,2.69.31,5.43.31,8.14Zm-210.62-.36h-2c0-2.71.1-5.44.31-8.13l2,.15C22.45,121.19,22.35,123.88,22.35,126.54Zm207.41-15.8c-.4-2.63-.91-5.27-1.51-7.84l1.95-.46c.61,2.63,1.13,5.32,1.54,8Zm-206.19-.12-2-.31c.42-2.67.94-5.36,1.55-8l1.95.46C24.49,105.35,24,108,23.57,110.62ZM226.14,95.19c-.8-2.53-1.71-5.06-2.7-7.52l1.85-.75c1,2.51,1.94,5.09,2.76,7.67ZM27.21,95.07l-1.9-.6c.81-2.58,1.74-5.15,2.76-7.66l1.85.75C28.92,90,28,92.55,27.21,95.07Zm193-14.7c-1.18-2.38-2.46-4.74-3.82-7l1.72-1c1.38,2.32,2.69,4.73,3.9,7.15Zm-187-.09-1.8-.89c1.2-2.41,2.52-4.82,3.9-7.14l1.72,1C35.66,75.55,34.37,77.91,33.2,80.28ZM212,66.65c-1.53-2.18-3.16-4.31-4.85-6.36L208.68,59c1.72,2.08,3.38,4.26,4.94,6.47ZM41.37,66.58l-1.63-1.16C41.3,63.21,43,61,44.68,59l1.55,1.27C44.54,62.27,42.9,64.41,41.37,66.58ZM201.82,54.33c-1.84-1.91-3.78-3.78-5.75-5.54l1.33-1.49c2,1.79,4,3.69,5.86,5.64ZM51.55,54.27l-1.44-1.39C52,50.93,54,49,56,47.24l1.33,1.49C55.33,50.5,53.39,52.36,51.55,54.27ZM189.91,43.7c-2.11-1.61-4.31-3.16-6.53-4.6l1.09-1.68c2.26,1.47,4.5,3,6.65,4.69ZM63.47,43.65l-1.21-1.59c2.15-1.64,4.39-3.22,6.66-4.69L70,39.05C67.78,40.49,65.58,42,63.47,43.65ZM176.52,35c-2.33-1.27-4.74-2.47-7.15-3.55l.82-1.82c2.46,1.1,4.91,2.32,7.29,3.61ZM76.88,35l-1-1.75c2.38-1.29,4.84-2.51,7.31-3.62L84,31.42C81.62,32.5,79.21,33.7,76.88,35ZM162,28.47c-2.49-.89-5.06-1.7-7.62-2.41l.53-1.93c2.61.72,5.22,1.55,7.76,2.46Zm-70.51,0-.67-1.88c2.54-.91,5.15-1.74,7.76-2.45L99.08,26C96.52,26.73,94,27.54,91.46,28.43Zm55.11-4.19c-2.6-.5-5.26-.91-7.89-1.21l.23-2c2.68.31,5.39.73,8,1.24Zm-39.71,0-.38-2c2.65-.5,5.36-.92,8-1.22l.23,2C112.11,23.32,109.46,23.72,106.86,24.22Zm23.85-1.8c-2.67-.1-5.38-.1-8,0l-.07-2c2.65-.1,5.42-.1,8.14,0Zm-98,237.67-1.08-.83a.82.82,0,0,1-.14-1.16l8.11-10.56c.16-.2.05-.29-.16-.12l-10.59,8.64a1.1,1.1,0,0,1-1.32.05l-.23-.17a1.13,1.13,0,0,1-.33-1.28l5.68-12.49c.12-.24,0-.36-.16-.13l-8.12,10.58a.86.86,0,0,1-1.18.15l-1.11-.84a.87.87,0,0,1-.13-1.16l11.61-15.11c.37-.48.66-.52,1.14-.15l2.41,1.86a.93.93,0,0,1,.29,1.28l-4.54,10c-.13.27.07.39.28.22l8.52-7a.93.93,0,0,1,1.34,0l2.32,1.78a.85.85,0,0,1,.18,1.2L33.87,260A.84.84,0,0,1,32.69,260.09ZM55,271.35A5.36,5.36,0,0,1,50.1,271a5.26,5.26,0,0,1-3-3.86c-.2-1.49.15-2.81,1.25-4.89l3.52-6.63c1.1-2.08,2.09-3.19,3.36-3.8a5.21,5.21,0,0,1,4.87.35,5.32,5.32,0,0,1,3,3.85,8,8,0,0,1-1.26,4.91l-3.52,6.64C57.25,269.65,56.28,270.74,55,271.35Zm4-11.88c1.38-2.61,1.3-3.81-.29-4.65s-2.63-.25-4,2.37l-3.48,6.55c-1.37,2.59-1.33,3.76.31,4.63s2.63.25,4-2.34ZM77.8,282.31l-1.61-.56a1.05,1.05,0,0,1-.77-1.16l.17-7.16a1,1,0,0,0-.75-1.12l-.27-.09a.73.73,0,0,0-1.06.49l-2.26,6.46a.79.79,0,0,1-1,.5l-1.51-.53a.75.75,0,0,1-.47-1l6.27-18a.85.85,0,0,1,1-.53l4,1.39c3.65,1.27,4.91,3.89,3.64,7.54-.76,2.19-2,3.55-3.65,4-.58.16-.75.32-.78.83l-.16,8.3A.6.6,0,0,1,77.8,282.31ZM78,263.57l-.33-.12a.84.84,0,0,0-1.07.52L75,268.35a.84.84,0,0,0,.52,1.07l.33.12c2.3.8,3.37.28,4.14-1.94S80.25,264.37,78,263.57Zm15.67,22.74L92.08,286a.83.83,0,0,1-.63-.93l4-18.71a.79.79,0,0,1,1-.62l1.56.32a.85.85,0,0,1,.63.94l-4,18.73A.86.86,0,0,1,93.62,286.31Zm40.45,3.33-1.54,0a1,1,0,0,1-1-.83l-.61-2.81a1,1,0,0,0-1-.86l-2.76,0a1.11,1.11,0,0,0-.94.88l-.52,2.85a1,1,0,0,1-1,.82l-1.51,0a.64.64,0,0,1-.64-.83L126,269.8a.86.86,0,0,1,1-.79l2.75,0a1,1,0,0,1,1,.83l4,19A.67.67,0,0,1,134.07,289.64Zm-5.51-15.78c-.06-.2-.3-.25-.32,0L127,281.51c-.11.49.27.75.73.75l1.65,0c.53,0,.78-.27.69-.82Zm29,13-1.55.25a1.21,1.21,0,0,1-1.28-.64l-6.15-9.94c-.24-.37-.4-.32-.34.06L150,287.23a.81.81,0,0,1-.7,1l-1.54.25a.76.76,0,0,1-.93-.67l-3-18.81a.76.76,0,0,1,.66-1l1.55-.25a1.29,1.29,0,0,1,1.28.61l6.18,10c.24.37.41.31.35-.06l-1.72-10.65a.82.82,0,0,1,.67-1l1.54-.25a.76.76,0,0,1,1,.67l3,18.84A.87.87,0,0,1,157.59,286.85Zm16.25-4.1-1.5.45a.81.81,0,0,1-1-.52l-5.46-18.31a.79.79,0,0,1,.55-1l1.53-.46a.84.84,0,0,1,1,.52l5.46,18.34A.86.86,0,0,1,173.84,282.75Zm26.65-10.57-1.24.57a.83.83,0,0,1-1.09-.43l-5.54-12.1c-.11-.24-.24-.18-.18.08l2.69,13.41a1.11,1.11,0,0,1-.57,1.19l-.27.12a1.1,1.1,0,0,1-1.28-.31l-8.39-10.86c-.16-.21-.31-.18-.19.09L190,276.06a.86.86,0,0,1-.42,1.12l-1.26.58a.85.85,0,0,1-1.09-.43L179.28,260c-.25-.55-.15-.83.4-1.08l2.77-1.27a1,1,0,0,1,1.28.34l6.72,8.7c.18.24.37.11.32-.15l-2.16-10.78a.93.93,0,0,1,.59-1.2l2.67-1.22a.85.85,0,0,1,1.14.4L201,271.08A.87.87,0,0,1,200.49,272.18ZM221.6,259.3l-1.28.86A.93.93,0,0,1,219,260l-2-2a1,1,0,0,0-1.33-.16l-2.29,1.52a1.11,1.11,0,0,0-.31,1.26l1.12,2.67a1,1,0,0,1-.37,1.22l-1.26.84a.65.65,0,0,1-1-.35L204,247.07a.87.87,0,0,1,.36-1.18l2.3-1.53a.93.93,0,0,1,1.31.14l13.74,13.7A.67.67,0,0,1,221.6,259.3Zm-13.22-10.21c-.16-.14-.39-.06-.25.2l3.08,7.08c.17.47.63.48,1,.23l1.37-.92a.61.61,0,0,0,.13-1.06Zm29.81-3.42-6,5.26a.8.8,0,0,1-1.14-.07l-12.61-14.28a.79.79,0,0,1,.05-1.16l1.15-1a.81.81,0,0,1,1.21,0l10.63,12a.77.77,0,0,0,1.15.11l3.56-3.15a.73.73,0,0,1,1.16.09l.87,1A.81.81,0,0,1,238.19,245.67Z"/></g></g></svg>